# xmcd
#
# Track frame offsets:
#	150
#	9250
#	20907
#	32485
#	59590
#	74682
#	84647
#	112922
#	126402
#	136610
#	140007
#	162762
#	176392
#	189537
#	203055
#	214695
#	234192
#	247407
#
# Disc length: 3421 seconds
#
# Revision: 0
# Processed by: cddbd v1.5.2PL0 Copyright (c) Steve Scherf et al.
# Submitted via: dBpowerAMP V4.0
#
DISCID=000d5b12
DTITLE=Commander Cody And His Lost Planet Airmen - 1973-07-21 Port Chester
DYEAR=1900
DGENRE=Country Rock
TTITLE0=Intro
TTITLE1=Good Rockin' Tonight
TTITLE2=Everybody's Doin' It
TTITLE3=Milkcow Blues
TTITLE4=Semi-Truck
TTITLE5=Mama Tried
TTITLE6=Mama Hated Diesels
TTITLE7=Lookin' At The World Through A Windshield
TTITLE8=Diggy Liggy Lo
TTITLE9=Cryin' Time
TTITLE10=Beat Me Daddy Eight To The Bar
TTITLE11=Hot Rod Lincoln
TTITLE12=Riot In Cell Block #9
TTITLE13=Rock That Boogie
TTITLE14=20 Flight Rock
TTITLE15=Jailhouse Rock
TTITLE16=Mean Woman Blues
TTITLE17=Lost In The Ozone
EXTD=
EXTT0=
EXTT1=
EXTT2=
EXTT3=
EXTT4=
EXTT5=
EXTT6=
EXTT7=
EXTT8=
EXTT9=
EXTT10=
EXTT11=
EXTT12=
EXTT13=
EXTT14=
EXTT15=
EXTT16=
EXTT17=
PLAYORDER=
